<?xml version="1.0"?>
<svg xmlns="http://www.w3.org/2000/svg" xmlns:xlink="http://www.w3.org/1999/xlink" xmlns:svgjs="http://svgjs.com/svgjs" version="1.1" width="512" height="512" x="0" y="0" viewBox="0 0 512 512" style="enable-background:new 0 0 512 512" xml:space="preserve" class=""><g><g xmlns="http://www.w3.org/2000/svg"><path d="m506.829 243.122c-.078-.322-.167-.642-.266-.958-24.635-78.552-76.584-92.41-118.327-103.545-48.466-12.93-80.485-21.471-70.23-122.098.626-6.146-2.581-12.049-8.079-14.868-5.498-2.821-12.163-1.979-16.789 2.118-20.786 18.407-36.114 41.639-44.327 67.182-7.971 24.788-8.997 50.71-2.967 74.963 11.68 46.978 47.395 80.941 97.989 93.185.428.104.86.188 1.295.254 60.028 9.035 99.758 59.118 109.003 137.405.726 6.146 5.15 11.215 11.142 12.764 5.894 1.547 12.321-.714 15.932-5.763 28.375-39.446 37.715-90.707 25.624-140.639z" fill="#ffffff" data-original="#000000" style="" class=""/><path d="m207.35 256.004c-45.184-23.996-75.865-43.866-89.19-68.739-12.235-22.839-12.521-52.882-1.02-107.155 1.181-5.575-.899-11.339-5.369-14.874-4.471-3.537-10.558-4.234-15.711-1.799-27.852 13.155-51.762 34.074-69.145 60.495-17.145 26.059-26.447 55.074-26.899 83.909-.372 23.726 5.56 46.58 17.152 66.093 12.714 21.4 31.809 38.718 56.753 51.47 11.075 5.661 23.067 10.896 34.664 15.959 30.062 13.124 61.147 26.694 79.801 48.892 20.52 24.419 24.017 57.03 11.006 102.63-1.676 5.874.377 12.177 5.19 15.938 4.825 3.769 11.442 4.218 16.719 1.178 50.843-29.274 79.521-74.233 78.68-123.35-.43-25.109-8.855-50.154-24.367-72.427-16.105-23.129-39.073-42.717-68.264-58.22z" fill="#ffffff" data-original="#000000" style="" class=""/><path d="m417 420h-15v-15c0-8.284-6.716-15-15-15s-15 6.716-15 15v15h-15c-8.284 0-15 6.716-15 15s6.716 15 15 15h15v15c0 8.284 6.716 15 15 15s15-6.716 15-15v-15h15c8.284 0 15-6.716 15-15s-6.716-15-15-15z" fill="#ffffff" data-original="#000000" style="" class=""/><path d="m397 80h15v15c0 8.284 6.716 15 15 15s15-6.716 15-15v-15h15c8.284 0 15-6.716 15-15s-6.716-15-15-15h-15v-15c0-8.284-6.716-15-15-15s-15 6.716-15 15v15h-15c-8.284 0-15 6.716-15 15s6.716 15 15 15z" fill="#ffffff" data-original="#000000" style="" class=""/><path d="m147 60h15v15c0 8.284 6.716 15 15 15s15-6.716 15-15v-15h15c8.284 0 15-6.716 15-15s-6.716-15-15-15h-15v-15c0-8.284-6.716-15-15-15s-15 6.716-15 15v15h-15c-8.284 0-15 6.716-15 15s6.716 15 15 15z" fill="#ffffff" data-original="#000000" style="" class=""/></g></g></svg>
